# xmcd
#
# Track frame offsets:
#	150
#	5502
#	22822
#	47742
#	70002
#	81805
#	101732
#	122097
#	146155
#	167785
#	196677
#	234272
#	240545
#	249170
#
# Disc length: 3664 seconds
#
# Revision: 0
# Processed by: cddbd v1.4PL0 Copyright (c) Steve Scherf et al.
# Submitted via: dBpowerAMP V4.0
#
DISCID=a90e4e0e
DTITLE=Stacye Cranford - Be the lord of my life
DYEAR=1900
DGENRE=Gospel
TTITLE0=Intro
TTITLE1=I thank you lord
TTITLE2=Worshipping you
TTITLE3=Be the lord of my life
TTITLE4=Be the lord of my life Part 2
TTITLE5=Fill this place
TTITLE6=Fill this place (Reprise)
TTITLE7=Sacrifice of praise
TTITLE8=Higest praise
TTITLE9=I Am blessed
TTITLE10=We worship
TTITLE11=Pure worship
TTITLE12=Shout it out
TTITLE13=Sacrifice of praise (J.O.A.D.A''s Groove)
EXTD=
EXTT0=
EXTT1=
EXTT2=
EXTT3=
EXTT4=
EXTT5=
EXTT6=
EXTT7=
EXTT8=
EXTT9=
EXTT10=
EXTT11=
EXTT12=
EXTT13=
PLAYORDER=
